# Tiled2Unity generated file. Do not modify by hand.
# Wavefront file for 'TestingMap2_mesh_0003.obj'

# Vertices (Count = 12)
v -832 -800 0
v -864 -800 0
v -864 -768 0
v -832 -768 0
v -768 -832 0
v -800 -832 0
v -800 -800 0
v -768 -800 0
v -832 -832 0
v -864 -832 0
v -864 -800 0
v -832 -800 0

# Texture cooridinates (Count = 4)
vt 0 0
vt 1 0
vt 1 1
vt 0 1

# Normal
vn 0 0 -1

# Mesh description
g TestingMap2_mesh_0003

# Faces
f 1/1/1 2/2/1 3/3/1 4/4/1
f 5/1/1 6/2/1 7/3/1 8/4/1
f 9/1/1 10/2/1 11/3/1 12/4/1

